<mxfile host="app.diagrams.net" modified="2024-05-06T10:44:49.683Z" agent="Mozilla/5.0 (Windows NT 10.0; Win64; x64) AppleWebKit/537.36 (KHTML, like Gecko) Chrome/124.0.0.0 Safari/537.36" etag="ulFMkjKBko3jl5yYJThc" version="24.3.1" type="device">
  <diagram name="PÃ¡gina-1" id="4e2-4DVGfl-JO8rfM2Sv">
    <mxGraphModel dx="750" dy="373" grid="1" gridSize="10" guides="1" tooltips="1" connect="1" arrows="1" fold="1" page="1" pageScale="1" pageWidth="2336" pageHeight="1654" math="0" shadow="0">
      <root>
        <mxCell id="0" />
        <mxCell id="1" parent="0" />
        <mxCell id="BO8Fcs4cgI1VCewhqYsc-1" value="Usuario" style="shape=umlActor;verticalLabelPosition=bottom;verticalAlign=top;html=1;outlineConnect=0;" vertex="1" parent="1">
          <mxGeometry x="320" y="240" width="30" height="60" as="geometry" />
        </mxCell>
        <mxCell id="BO8Fcs4cgI1VCewhqYsc-2" value="" style="endArrow=classic;html=1;rounded=0;exitX=1;exitY=0.3333333333333333;exitDx=0;exitDy=0;exitPerimeter=0;entryX=0;entryY=0.5;entryDx=0;entryDy=0;" edge="1" parent="1" source="BO8Fcs4cgI1VCewhqYsc-1" target="BO8Fcs4cgI1VCewhqYsc-3">
          <mxGeometry width="50" height="50" relative="1" as="geometry">
            <mxPoint x="400" y="260" as="sourcePoint" />
            <mxPoint x="440" y="160" as="targetPoint" />
          </mxGeometry>
        </mxCell>
        <mxCell id="BO8Fcs4cgI1VCewhqYsc-3" value="Insertar&amp;nbsp;" style="ellipse;whiteSpace=wrap;html=1;" vertex="1" parent="1">
          <mxGeometry x="490" y="120" width="120" height="50" as="geometry" />
        </mxCell>
        <mxCell id="BO8Fcs4cgI1VCewhqYsc-4" value="" style="endArrow=classic;html=1;rounded=0;exitX=1;exitY=0.3333333333333333;exitDx=0;exitDy=0;exitPerimeter=0;entryX=0;entryY=0.5;entryDx=0;entryDy=0;" edge="1" parent="1" target="BO8Fcs4cgI1VCewhqYsc-5" source="BO8Fcs4cgI1VCewhqYsc-1">
          <mxGeometry width="50" height="50" relative="1" as="geometry">
            <mxPoint x="360" y="270" as="sourcePoint" />
            <mxPoint x="450" y="170" as="targetPoint" />
          </mxGeometry>
        </mxCell>
        <mxCell id="BO8Fcs4cgI1VCewhqYsc-5" value="Eliminar" style="ellipse;whiteSpace=wrap;html=1;" vertex="1" parent="1">
          <mxGeometry x="490" y="240" width="120" height="50" as="geometry" />
        </mxCell>
        <mxCell id="BO8Fcs4cgI1VCewhqYsc-6" value="" style="endArrow=classic;html=1;rounded=0;exitX=1;exitY=0.3333333333333333;exitDx=0;exitDy=0;exitPerimeter=0;entryX=0;entryY=0.5;entryDx=0;entryDy=0;" edge="1" parent="1" target="BO8Fcs4cgI1VCewhqYsc-7" source="BO8Fcs4cgI1VCewhqYsc-1">
          <mxGeometry width="50" height="50" relative="1" as="geometry">
            <mxPoint x="380" y="360" as="sourcePoint" />
            <mxPoint x="470" y="260" as="targetPoint" />
          </mxGeometry>
        </mxCell>
        <mxCell id="BO8Fcs4cgI1VCewhqYsc-7" value="Actualizar" style="ellipse;whiteSpace=wrap;html=1;" vertex="1" parent="1">
          <mxGeometry x="490" y="300" width="120" height="50" as="geometry" />
        </mxCell>
        <mxCell id="BO8Fcs4cgI1VCewhqYsc-8" value="" style="endArrow=classic;html=1;rounded=0;exitX=1;exitY=0.3333333333333333;exitDx=0;exitDy=0;exitPerimeter=0;entryX=0;entryY=0.5;entryDx=0;entryDy=0;" edge="1" parent="1" target="BO8Fcs4cgI1VCewhqYsc-9" source="BO8Fcs4cgI1VCewhqYsc-1">
          <mxGeometry width="50" height="50" relative="1" as="geometry">
            <mxPoint x="360" y="280" as="sourcePoint" />
            <mxPoint x="450" y="180" as="targetPoint" />
          </mxGeometry>
        </mxCell>
        <mxCell id="BO8Fcs4cgI1VCewhqYsc-9" value="Modificar" style="ellipse;whiteSpace=wrap;html=1;" vertex="1" parent="1">
          <mxGeometry x="490" y="180" width="120" height="50" as="geometry" />
        </mxCell>
      </root>
    </mxGraphModel>
  </diagram>
</mxfile>
